<svg xmlns="http://www.w3.org/2000/svg" viewBox="0 0 64 64"><defs><linearGradient id="g" x1="32" y1="4" x2="32" y2="60" gradientUnits="userSpaceOnUse"><stop stop-color="#FFF0B6"/><stop offset=".45" stop-color="#FFB629"/><stop offset="1" stop-color="#FF4E00"/></linearGradient></defs><path d="M35 4c4 10-3 15 2 22 3-7 9-9 12-17 8 13 11 24 5 36-4 9-12 15-23 15C15 60 7 49 9 36c2-10 9-16 15-24 1 9-2 14 3 19 0-13 7-18 8-27Z" fill="url(#g)"/><path d="M32 31c3 6-1 9 2 13 2-4 5-5 7-10 4 7 5 13 2 19-2 4-6 7-12 7-8 0-12-6-11-13 1-5 5-8 8-12 0 5-1 7 2 10 0-7 3-10 2-14Z" fill="#FFF3C7" opacity=".9"/></svg>
