<svg xmlns="http://www.w3.org/2000/svg" viewBox="0 0 64 64"><defs><linearGradient id="g" x1="32" y1="8" x2="32" y2="58"><stop stop-color="#FFF0B6"/><stop offset=".45" stop-color="#FFB629"/><stop offset="1" stop-color="#FF4E00"/></linearGradient></defs><path d="M34 4c3 8-2 11 2 16 2-5 6-7 9-12 6 9 8 16 4 23-3 6-8 9-15 9-10 0-16-7-14-16 1-6 5-10 9-15 0 6-1 9 2 12 0-8 4-12 3-17Z" fill="#FF6500"/><rect x="9" y="39" width="13" height="17" rx="2" fill="#F6F1E8" transform="rotate(-12 9 39)"/><rect x="43" y="39" width="13" height="17" rx="2" fill="#F6F1E8" transform="rotate(12 43 39)"/><text x="32" y="58" text-anchor="middle" font-family="Arial Black, sans-serif" font-size="34" font-weight="900" fill="url(#g)" stroke="#7A1800" stroke-width="1.5">5</text></svg>
